HIERARCHY
ROOT Hips
{
	OFFSET 0 0 0
	CHANNELS 6 Xposition Yposition Zposition Zrotation Xrotation Yrotation 
	JOINT RightUpLeg
	{
		OFFSET -3.17 -2.64 -0.26
		CHANNELS 3 Zrotation Xrotation Yrotation 
		JOINT RightLeg
		{
			OFFSET -0.36 -13.7 -0.45
			CHANNELS 3 Zrotation Xrotation Yrotation 
			End Site
			{
				OFFSET 0.13 -14.01 -0.08
			}
		}
	}
	JOINT LeftUpLeg
	{
		OFFSET 3.17 -2.64 -0.26
		CHANNELS 3 Zrotation Xrotation Yrotation 
		JOINT LeftLeg
		{
			OFFSET 0.36 -13.7 -0.45
			CHANNELS 3 Zrotation Xrotation Yrotation 
			End Site
			{
				OFFSET -0.13 -14.01 -0.08
			}
		}
	}
	JOINT Spine
	{
		OFFSET 0 2.88 0
		CHANNELS 3 Zrotation Xrotation Yrotation 
		JOINT Spine1
		{
			OFFSET 0 3.38 0
			CHANNELS 3 Zrotation Xrotation Yrotation 
			JOINT Spine2
			{
				OFFSET 0 3.61 0
				CHANNELS 3 Zrotation Xrotation Yrotation 
				JOINT Spine3
				{
					OFFSET 0 3.52 0.37
					CHANNELS 3 Zrotation Xrotation Yrotation 
					JOINT Neck
					{
						OFFSET 0 3.62 -0.37
						CHANNELS 3 Zrotation Xrotation Yrotation 
						End Site
						{
							OFFSET 0 3 0
						}
					}
					JOINT RightShoulder
					{
						OFFSET -1.47 1.22 -0.37
						CHANNELS 3 Zrotation Xrotation Yrotation 
						JOINT RightArm
						{
							OFFSET -4.69 0 0
							CHANNELS 3 Zrotation Xrotation Yrotation 
							JOINT RightForeArm
							{
								OFFSET -7.76 0 0
								CHANNELS 3 Zrotation Xrotation Yrotation 
								JOINT RightHand
								{
									OFFSET -8.52 0 0
									CHANNELS 3 Zrotation Xrotation Yrotation 
									JOINT RightHandThumb1
									{
										OFFSET -1.01 0.08 1.27
										CHANNELS 3 Zrotation Xrotation Yrotation 
										JOINT RightHandThumb2
										{
											OFFSET -1.5 0 -0.01
											CHANNELS 3 Zrotation Xrotation Yrotation 
											End Site
											{
												OFFSET -1.04 0 -0.01
											}
										}
									}
									JOINT RightInHandIndex
									{
										OFFSET -1.31 0.21 0.81
										CHANNELS 3 Zrotation Xrotation Yrotation 
										JOINT RightHandIndex1
										{
											OFFSET -2.13 -0.04 0.41
											CHANNELS 3 Zrotation Xrotation Yrotation 
											JOINT RightHandIndex2
											{
												OFFSET -1.47 -0.07 0
												CHANNELS 3 Zrotation Xrotation Yrotation 
												End Site
												{
													OFFSET -0.83 -0.05 0
												}
											}
										}
									}
									JOINT RightInHandMiddle
									{
										OFFSET -1.38 0.21 0.31
										CHANNELS 3 Zrotation Xrotation Yrotation 
										JOINT RightHandMiddle1
										{
											OFFSET -2.11 -0.03 0.13
											CHANNELS 3 Zrotation Xrotation Yrotation 
											JOINT RightHandMiddle2
											{
												OFFSET -1.6 -0.11 0
												CHANNELS 3 Zrotation Xrotation Yrotation 
												End Site
												{
													OFFSET -1 -0.08 0
												}
											}
										}
									}
									JOINT RightInHandRing
									{
										OFFSET -1.37 0.22 -0.05
										CHANNELS 3 Zrotation Xrotation Yrotation 
										JOINT RightHandRing1
										{
											OFFSET -1.89 -0.01 -0.2
											CHANNELS 3 Zrotation Xrotation Yrotation 
											JOINT RightHandRing2
											{
												OFFSET -1.4 -0.13 0
												CHANNELS 3 Zrotation Xrotation Yrotation 
												End Site
												{
													OFFSET -0.97 -0.08 0
												}
											}
										}
									}
									JOINT RightInHandPinky
									{
										OFFSET -1.29 0.19 -0.49
										CHANNELS 3 Zrotation Xrotation Yrotation 
										JOINT RightHandPinky1
										{
											OFFSET -1.69 -0.01 -0.44
											CHANNELS 3 Zrotation Xrotation Yrotation 
											JOINT RightHandPinky2
											{
												OFFSET -1.12 -0.06 -0.01
												CHANNELS 3 Zrotation Xrotation Yrotation 
												End Site
												{
													OFFSET -0.71 -0.05 0
												}
											}
										}
									}
								}
							}
						}
					}
					JOINT LeftShoulder
					{
						OFFSET 1.47 1.22 -0.37
						CHANNELS 3 Zrotation Xrotation Yrotation 
						JOINT LeftArm
						{
							OFFSET 4.69 0 0
							CHANNELS 3 Zrotation Xrotation Yrotation 
							JOINT LeftForeArm
							{
								OFFSET 7.76 0 0
								CHANNELS 3 Zrotation Xrotation Yrotation 
								JOINT LeftHand
								{
									OFFSET 8.52 0 0
									CHANNELS 3 Zrotation Xrotation Yrotation 
									JOINT LeftHandThumb1
									{
										OFFSET 1.01 0.08 1.27
										CHANNELS 3 Zrotation Xrotation Yrotation 
										JOINT LeftHandThumb2
										{
											OFFSET 1.5 0 0
											CHANNELS 3 Zrotation Xrotation Yrotation 
											End Site
											{
												OFFSET 1.04 0 0
											}
										}
									}
									JOINT LeftInHandIndex
									{
										OFFSET 1.31 0.21 0.81
										CHANNELS 3 Zrotation Xrotation Yrotation 
										JOINT LeftHandIndex1
										{
											OFFSET 2.13 -0.04 0.41
											CHANNELS 3 Zrotation Xrotation Yrotation 
											JOINT LeftHandIndex2
											{
												OFFSET 1.47 -0.07 0
												CHANNELS 3 Zrotation Xrotation Yrotation 
												End Site
												{
													OFFSET 0.83 -0.05 0
												}
											}
										}
									}
									JOINT LeftInHandMiddle
									{
										OFFSET 1.38 0.21 0.31
										CHANNELS 3 Zrotation Xrotation Yrotation 
										JOINT LeftHandMiddle1
										{
											OFFSET 2.11 -0.03 0.13
											CHANNELS 3 Zrotation Xrotation Yrotation 
											JOINT LeftHandMiddle2
											{
												OFFSET 1.6 -0.11 0
												CHANNELS 3 Zrotation Xrotation Yrotation 
												End Site
												{
													OFFSET 1 -0.08 0
												}
											}
										}
									}
									JOINT LeftInHandRing
									{
										OFFSET 1.37 0.22 -0.05
										CHANNELS 3 Zrotation Xrotation Yrotation 
										JOINT LeftHandRing1
										{
											OFFSET 1.89 -0.01 -0.2
											CHANNELS 3 Zrotation Xrotation Yrotation 
											JOINT LeftHandRing2
											{
												OFFSET 1.4 -0.11 0
												CHANNELS 3 Zrotation Xrotation Yrotation 
												End Site
												{
													OFFSET 0.97 -0.07 0
												}
											}
										}
									}
									JOINT LeftInHandPinky
									{
										OFFSET 1.29 0.19 -0.49
										CHANNELS 3 Zrotation Xrotation Yrotation 
										JOINT LeftHandPinky1
										{
											OFFSET 1.69 -0.01 -0.44
											CHANNELS 3 Zrotation Xrotation Yrotation 
											JOINT LeftHandPinky2
											{
												OFFSET 1.12 -0.06 0
												CHANNELS 3 Zrotation Xrotation Yrotation 
												End Site
												{
													OFFSET 0.71 -0.05 0
												}
											}
										}
									}
								}
							}
						}
					}
				}
			}
		}
	}
}
MOTION
Frames: 8
Frame Time: 0.0333333
33.2878 17.5419 13.8376 357.2568 -3.5707 14.396 36.1951 -70.6104 25.2604 180 -281.7215 180 78.1176 -16.6126 58.7481 179.9998 -274.8602 180.0002 4.9859 -352.5995 354.9174 1.181 -358.0526 358.8846 1.9763 -356.7522 358.2135 359.5857 -358.0316 1.1098 116.693 -280.9049 254.3225 351.8177 -356.5642 13.1102 65.0802 -31.9965 59.8993 149.0822 -315.0648 304.3983 244.336 -284.8557 159.7076 350.1865 -340.8547 117.8077 0.2328 -17.4187 90.7775 0 0 0 118.4681 -346.7456 352.9133 292.4678 0 0 0 0 0 36.6117 0 0 36.6117 0 0 0 0 0 12.4618 -3.3092 345.3614 12.887 0 0 0 0 0 119.3063 -22.128 11.9386 116.9637 0 0 21.2502 -3.4379 348.6856 241.0843 -50.3685 250.6548 61.0924 -26.2371 334.3596 334.1033 -31.8852 359.8509 344.0673 -304.0189 289.0048 336.328 -351.3918 341.1488 0 0 0 237.9462 -347.2051 7.8951 142.3212 0 0 0 0 0 18.4923 0 0 18.4923 0 0 0 0 0 241.9994 -13.3105 353.0207 242.8147 0 0 0 0 0 254.4354 -24.19 353.4887 255.8321 0 0 
33.2878 17.5419 13.8376 357.2568 -3.5707 14.396 36.1951 -70.6104 25.2604 180 -281.7215 180 78.1176 -16.6126 58.7481 179.9998 -274.8602 180.0002 4.9859 -352.5995 354.9174 1.181 -358.0526 358.8846 1.9763 -356.7522 358.2135 359.5857 -358.0316 1.1098 116.693 -280.9049 254.3225 351.8177 -356.5642 13.1102 65.0802 -31.9965 59.8993 149.0822 -315.0648 304.3983 244.336 -284.8557 159.7076 350.1865 -340.8547 117.8077 0.2328 -17.4187 90.7775 0 0 0 118.4681 -346.7456 352.9133 292.4678 0 0 0 0 0 36.6117 0 0 36.6117 0 0 0 0 0 12.4618 -3.3092 345.3614 12.887 0 0 0 0 0 119.3063 -22.128 11.9386 116.9637 0 0 21.2502 -3.4379 348.6856 241.0843 -50.3685 250.6548 61.0924 -26.2371 334.3596 334.1033 -31.8852 359.8509 344.0673 -304.0189 289.0048 336.328 -351.3918 341.1488 0 0 0 237.9462 -347.2051 7.8951 142.3212 0 0 0 0 0 18.4923 0 0 18.4923 0 0 0 0 0 241.9994 -13.3105 353.0207 242.8147 0 0 0 0 0 254.4354 -24.19 353.4887 255.8321 0 0 
33.2914 17.5393 13.8481 357.2548 -3.6086 14.3947 36.0897 -70.5717 25.1193 180 -281.765 180 78.1249 -16.5844 58.6916 180 -274.8727 180 5.0102 -352.6312 354.9328 1.1876 -358.0603 358.8887 1.987 -356.7647 358.2204 359.5849 -358.0304 1.1104 116.6458 -280.8973 254.3433 351.8101 -356.5735 13.078 64.7488 -31.8678 59.7309 148.9353 -314.8913 304.6899 244.324 -284.8235 159.7094 350.187 -340.852 117.8033 0.2299 -17.4165 90.768 0 0 0 118.4613 -346.7448 352.9149 292.4744 0 0 0 0 0 36.6188 0 0 36.6188 0 0 0 0 0 12.473 -3.3121 345.362 12.8985 0 0 0 0 0 119.3153 -22.1263 11.9419 116.9722 0 0 21.2878 -3.405 348.6439 241.0325 -50.3591 250.6914 61.821 -23.8659 336.8057 332.5705 -33.1001 356.2924 345.0762 -303.1701 287.662 336.003 -350.4182 339.4984 0 0 0 239.3687 -347.0167 7.5778 138.3117 0 0 0 0 0 18.4923 0 0 18.4923 0 0 0 0 0 241.9994 -13.3105 353.0207 242.8147 0 0 0 0 0 253.5203 -24.0919 353.1144 254.9914 0 0 
33.2914 17.5393 13.8481 357.2548 -3.6086 14.3947 36.0897 -70.5717 25.1193 180 -281.765 180 78.1249 -16.5844 58.6916 180 -274.8727 180 5.0102 -352.6312 354.9328 1.1876 -358.0603 358.8887 1.987 -356.7647 358.2204 359.5849 -358.0304 1.1104 116.6458 -280.8973 254.3433 351.8101 -356.5735 13.078 64.7488 -31.8678 59.7309 148.9353 -314.8913 304.6899 244.324 -284.8235 159.7094 350.187 -340.852 117.8033 0.2299 -17.4165 90.768 0 0 0 118.4613 -346.7448 352.9149 292.4744 0 0 0 0 0 36.6188 0 0 36.6188 0 0 0 0 0 12.473 -3.3121 345.362 12.8985 0 0 0 0 0 119.3153 -22.1263 11.9419 116.9722 0 0 21.2878 -3.405 348.6439 241.0325 -50.3591 250.6914 61.821 -23.8659 336.8057 332.5705 -33.1001 356.2924 345.0762 -303.1701 287.662 336.003 -350.4182 339.4984 0 0 0 239.3687 -347.0167 7.5778 138.3117 0 0 0 0 0 18.4923 0 0 18.4923 0 0 0 0 0 241.9994 -13.3105 353.0207 242.8147 0 0 0 0 0 253.5203 -24.0919 353.1144 254.9914 0 0 
33.2943 17.5386 13.8533 357.2591 -3.6298 14.3906 36.033 -70.5431 25.0561 180 -281.7827 180 78.1169 -16.563 58.6615 180 -274.8759 180 5.0255 -352.6465 354.9371 1.1916 -358.0638 358.89 1.9936 -356.7705 358.2227 359.5856 -358.0322 1.1107 116.7087 -280.9401 254.3143 351.8018 -356.5915 13.1025 64.5763 -31.8092 59.6488 148.8172 -314.8393 304.8575 244.3034 -284.8231 159.7174 350.188 -340.8524 117.8012 0.2287 -17.4173 90.764 0 0 0 118.4617 -346.7448 352.9148 292.4781 0 0 0 0 0 36.6203 0 0 36.6203 0 0 0 0 0 12.477 -3.3131 345.3623 12.9026 0 0 0 0 0 119.3174 -22.1258 11.9427 116.9742 0 0 21.3109 -3.4207 348.6149 240.6534 -50.4596 250.674 61.5561 -23.9549 336.5172 334.0232 -32.9775 358.4279 346.6157 -302.3373 285.7283 335.8748 -349.2195 337.3318 0 0 0 238.8683 -347.0821 7.6899 135.8381 0 0 0 0 0 16.5773 0 0 16.5773 0 0 0 0 0 243.8568 -13.5248 353.4518 244.6342 0 0 0 0 0 257.1595 -24.4488 354.6107 258.3279 0 0 
33.2981 17.5393 13.857 357.2601 -3.6515 14.3892 35.9334 -70.5192 24.9444 180 -281.7917 180 78.1064 -16.5437 58.6373 180 -274.8746 180 5.0414 -352.664 354.9448 1.1958 -358.068 358.8921 2.0005 -356.7773 358.2264 359.5864 -358.0342 1.1108 116.7825 -280.9875 254.2779 351.8097 -356.5887 13.082 64.6313 -31.8098 59.6756 148.8172 -314.9372 304.8188 244.3023 -284.8345 159.7103 350.1876 -340.8529 117.8028 0.2297 -17.4176 90.7673 0 0 0 118.4655 -346.7453 352.9139 292.4792 0 0 0 0 0 36.6186 0 0 36.6186 0 0 0 0 0 12.4764 -3.313 345.3622 12.902 0 0 0 0 0 119.3155 -22.1262 11.942 116.9724 0 0 21.3353 -3.461 348.5604 240.269 -50.5039 250.6099 61.3623 -23.978 336.2199 335.5928 -32.7042 0.7735 348.4446 -301.4607 283.4792 335.8098 -347.8699 334.9308 0 0 0 238.739 -347.0992 7.7188 133.2847 0 0 0 0 0 16.5773 0 0 16.5773 0 0 0 0 0 243.8568 -13.5248 353.4518 244.6342 0 0 0 0 0 257.1595 -24.4488 354.6107 258.3279 0 0 
33.3123 17.541 13.8558 357.2652 -3.6925 14.3855 35.7607 -70.4841 24.7944 180 -281.8018 180 78.09 -16.5169 58.6193 180 -274.9134 180 5.0745 -352.7001 354.982 1.2049 -358.0771 358.9019 2.0153 -356.7921 358.2429 359.5862 -358.0262 1.1012 115.9587 -280.888 255.0232 351.8004 -356.6209 13.1012 64.7437 -31.8617 59.6741 148.7904 -315.1362 304.749 244.2914 -284.8606 159.7127 350.187 -340.8531 117.8046 0.2308 -17.4174 90.771 0 0 0 118.4672 -346.7455 352.9135 292.4769 0 0 0 0 0 36.6171 0 0 36.6171 0 0 0 0 0 12.4741 -3.3124 345.3621 12.8997 0 0 0 0 0 119.3135 -22.1266 11.9413 116.9705 0 0 21.4644 -3.6447 348.3241 238.3162 -48.9118 249.6409 63.2634 -21.7196 337.4284 340.2509 -32.8594 6.6269 356.9455 -299.5299 273.5095 337.1787 -343.0298 325.2541 0 0 0 234.7758 -347.6534 8.5853 128.9223 0 0 0 0 0 12.4591 0 0 12.4591 0 0 0 0 0 248.1967 -13.9705 354.4836 248.8731 0 0 0 0 0 271.2957 -24.9944 0.5476 271.1744 0 0 
33.3123 17.541 13.8558 357.2652 -3.6925 14.3855 35.7607 -70.4841 24.7944 180 -281.8018 180 78.09 -16.5169 58.6193 180 -274.9134 180 5.0745 -352.7001 354.982 1.2049 -358.0771 358.9019 2.0153 -356.7921 358.2429 359.5862 -358.0262 1.1012 115.9587 -280.888 255.0232 351.8004 -356.6209 13.1012 64.7437 -31.8617 59.6741 148.7904 -315.1362 304.749 244.2914 -284.8606 159.7127 350.187 -340.8531 117.8046 0.2308 -17.4174 90.771 0 0 0 118.4672 -346.7455 352.9135 292.4769 0 0 0 0 0 36.6171 0 0 36.6171 0 0 0 0 0 12.4741 -3.3124 345.3621 12.8997 0 0 0 0 0 119.3135 -22.1266 11.9413 116.9705 0 0 21.4644 -3.6447 348.3241 238.3162 -48.9118 249.6409 63.2634 -21.7196 337.4284 340.2509 -32.8594 6.6269 356.9455 -299.5299 273.5095 337.1787 -343.0298 325.2541 0 0 0 234.7758 -347.6534 8.5853 128.9223 0 0 0 0 0 12.4591 0 0 12.4591 0 0 0 0 0 248.1967 -13.9705 354.4836 248.8731 0 0 0 0 0 271.2957 -24.9944 0.5476 271.1744 0 0 
